<mxfile host="app.diagrams.net" modified="2024-01-29T01:17:59.678Z" agent="Mozilla/5.0 (Windows NT 10.0; Win64; x64) AppleWebKit/537.36 (KHTML, like Gecko) Chrome/121.0.0.0 Safari/537.36" etag="LyjvTm1q9GTRJAkn6vSg" version="23.0.2" type="device">
  <diagram name="페이지-1" id="IaQlJuhT9XPAPFIF5odQ">
    <mxGraphModel dx="2261" dy="738" grid="1" gridSize="10" guides="1" tooltips="1" connect="1" arrows="1" fold="1" page="1" pageScale="1" pageWidth="827" pageHeight="1169" math="0" shadow="0">
      <root>
        <mxCell id="0" />
        <mxCell id="1" parent="0" />
        <mxCell id="QV_A89bPjgnbS8Glzwyx-54" style="rounded=0;orthogonalLoop=1;jettySize=auto;html=1;entryX=0.5;entryY=0;entryDx=0;entryDy=0;strokeWidth=3;strokeColor=#A50040;fillColor=#d80073;" parent="1" source="QV_A89bPjgnbS8Glzwyx-42" target="QV_A89bPjgnbS8Glzwyx-43" edge="1">
          <mxGeometry relative="1" as="geometry" />
        </mxCell>
        <mxCell id="QV_A89bPjgnbS8Glzwyx-55" style="rounded=0;orthogonalLoop=1;jettySize=auto;html=1;strokeWidth=3;strokeColor=#A50040;fillColor=#d80073;" parent="1" source="QV_A89bPjgnbS8Glzwyx-42" target="QV_A89bPjgnbS8Glzwyx-45" edge="1">
          <mxGeometry relative="1" as="geometry" />
        </mxCell>
        <mxCell id="QV_A89bPjgnbS8Glzwyx-57" style="rounded=0;orthogonalLoop=1;jettySize=auto;html=1;entryX=0.5;entryY=0;entryDx=0;entryDy=0;strokeWidth=3;strokeColor=#A50040;fillColor=#d80073;" parent="1" source="QV_A89bPjgnbS8Glzwyx-42" target="QV_A89bPjgnbS8Glzwyx-48" edge="1">
          <mxGeometry relative="1" as="geometry" />
        </mxCell>
        <mxCell id="QV_A89bPjgnbS8Glzwyx-58" style="rounded=0;orthogonalLoop=1;jettySize=auto;html=1;entryX=0.5;entryY=0;entryDx=0;entryDy=0;strokeWidth=3;strokeColor=#A50040;fillColor=#d80073;" parent="1" source="QV_A89bPjgnbS8Glzwyx-42" target="QV_A89bPjgnbS8Glzwyx-49" edge="1">
          <mxGeometry relative="1" as="geometry" />
        </mxCell>
        <mxCell id="QV_A89bPjgnbS8Glzwyx-59" style="rounded=0;orthogonalLoop=1;jettySize=auto;html=1;strokeWidth=3;strokeColor=#A50040;fillColor=#d80073;" parent="1" source="QV_A89bPjgnbS8Glzwyx-42" target="QV_A89bPjgnbS8Glzwyx-50" edge="1">
          <mxGeometry relative="1" as="geometry" />
        </mxCell>
        <mxCell id="QV_A89bPjgnbS8Glzwyx-60" style="rounded=0;orthogonalLoop=1;jettySize=auto;html=1;strokeWidth=3;strokeColor=#A50040;fillColor=#d80073;" parent="1" source="QV_A89bPjgnbS8Glzwyx-42" target="QV_A89bPjgnbS8Glzwyx-51" edge="1">
          <mxGeometry relative="1" as="geometry" />
        </mxCell>
        <mxCell id="QV_A89bPjgnbS8Glzwyx-62" style="rounded=0;orthogonalLoop=1;jettySize=auto;html=1;entryX=0.5;entryY=0;entryDx=0;entryDy=0;strokeWidth=3;strokeColor=#A50040;fillColor=#d80073;" parent="1" source="QV_A89bPjgnbS8Glzwyx-42" target="QV_A89bPjgnbS8Glzwyx-53" edge="1">
          <mxGeometry relative="1" as="geometry" />
        </mxCell>
        <mxCell id="QV_A89bPjgnbS8Glzwyx-42" value="매입매출" style="whiteSpace=wrap;html=1;align=center;strokeWidth=3;strokeColor=#A50040;fillColor=#d80073;fontColor=#ffffff;" parent="1" vertex="1">
          <mxGeometry x="373" y="660" width="100" height="40" as="geometry" />
        </mxCell>
        <mxCell id="QV_A89bPjgnbS8Glzwyx-43" value="일련번호" style="ellipse;whiteSpace=wrap;html=1;align=center;fontStyle=4;strokeWidth=3;strokeColor=#A50040;fillColor=#d80073;fontColor=#ffffff;" parent="1" vertex="1">
          <mxGeometry x="-90" y="930" width="100" height="40" as="geometry" />
        </mxCell>
        <mxCell id="QV_A89bPjgnbS8Glzwyx-45" value="거래일자" style="ellipse;whiteSpace=wrap;html=1;align=center;strokeWidth=3;strokeColor=#A50040;fillColor=#d80073;fontColor=#ffffff;" parent="1" vertex="1">
          <mxGeometry x="10" y="930" width="100" height="40" as="geometry" />
        </mxCell>
        <mxCell id="QV_A89bPjgnbS8Glzwyx-46" value="거래시각" style="ellipse;whiteSpace=wrap;html=1;align=center;strokeWidth=3;strokeColor=#A50040;fillColor=#d80073;fontColor=#ffffff;" parent="1" vertex="1">
          <mxGeometry x="110" y="930" width="100" height="40" as="geometry" />
        </mxCell>
        <mxCell id="QV_A89bPjgnbS8Glzwyx-47" value="상품명" style="ellipse;whiteSpace=wrap;html=1;align=center;strokeWidth=3;strokeColor=#A50040;fillColor=#d80073;fontColor=#ffffff;" parent="1" vertex="1">
          <mxGeometry x="216" y="930" width="100" height="40" as="geometry" />
        </mxCell>
        <mxCell id="QV_A89bPjgnbS8Glzwyx-48" value="거래처명" style="ellipse;whiteSpace=wrap;html=1;align=center;strokeWidth=3;strokeColor=#A50040;fillColor=#d80073;fontColor=#ffffff;" parent="1" vertex="1">
          <mxGeometry x="322" y="930" width="100" height="40" as="geometry" />
        </mxCell>
        <mxCell id="QV_A89bPjgnbS8Glzwyx-49" value="대표자명" style="ellipse;whiteSpace=wrap;html=1;align=center;strokeWidth=3;strokeColor=#A50040;fillColor=#d80073;fontColor=#ffffff;" parent="1" vertex="1">
          <mxGeometry x="427" y="930" width="100" height="40" as="geometry" />
        </mxCell>
        <mxCell id="QV_A89bPjgnbS8Glzwyx-50" value="거래구분" style="ellipse;whiteSpace=wrap;html=1;align=center;strokeWidth=3;strokeColor=#A50040;fillColor=#d80073;fontColor=#ffffff;" parent="1" vertex="1">
          <mxGeometry x="527" y="930" width="100" height="40" as="geometry" />
        </mxCell>
        <mxCell id="QV_A89bPjgnbS8Glzwyx-51" value="수량" style="ellipse;whiteSpace=wrap;html=1;align=center;strokeWidth=3;strokeColor=#A50040;fillColor=#d80073;fontColor=#ffffff;" parent="1" vertex="1">
          <mxGeometry x="627" y="930" width="100" height="40" as="geometry" />
        </mxCell>
        <mxCell id="QV_A89bPjgnbS8Glzwyx-52" value="매입단가" style="ellipse;whiteSpace=wrap;html=1;align=center;strokeWidth=3;strokeColor=#A50040;fillColor=#d80073;fontColor=#ffffff;" parent="1" vertex="1">
          <mxGeometry x="730" y="930" width="100" height="40" as="geometry" />
        </mxCell>
        <mxCell id="QV_A89bPjgnbS8Glzwyx-53" value="매출단가" style="ellipse;whiteSpace=wrap;html=1;align=center;strokeWidth=3;strokeColor=#A50040;fillColor=#d80073;fontColor=#ffffff;" parent="1" vertex="1">
          <mxGeometry x="840" y="930" width="100" height="40" as="geometry" />
        </mxCell>
        <mxCell id="QV_A89bPjgnbS8Glzwyx-56" style="rounded=0;orthogonalLoop=1;jettySize=auto;html=1;entryX=0.75;entryY=0.104;entryDx=0;entryDy=0;entryPerimeter=0;strokeWidth=3;strokeColor=#A50040;fillColor=#d80073;" parent="1" source="QV_A89bPjgnbS8Glzwyx-42" target="QV_A89bPjgnbS8Glzwyx-47" edge="1">
          <mxGeometry relative="1" as="geometry" />
        </mxCell>
        <mxCell id="QV_A89bPjgnbS8Glzwyx-61" style="rounded=0;orthogonalLoop=1;jettySize=auto;html=1;entryX=0.359;entryY=-0.011;entryDx=0;entryDy=0;entryPerimeter=0;strokeWidth=3;strokeColor=#A50040;fillColor=#d80073;" parent="1" source="QV_A89bPjgnbS8Glzwyx-42" target="QV_A89bPjgnbS8Glzwyx-52" edge="1">
          <mxGeometry relative="1" as="geometry" />
        </mxCell>
        <mxCell id="QV_A89bPjgnbS8Glzwyx-64" style="rounded=0;orthogonalLoop=1;jettySize=auto;html=1;entryX=0.763;entryY=0.094;entryDx=0;entryDy=0;entryPerimeter=0;strokeWidth=3;strokeColor=#A50040;fillColor=#d80073;" parent="1" source="QV_A89bPjgnbS8Glzwyx-42" target="QV_A89bPjgnbS8Glzwyx-46" edge="1">
          <mxGeometry relative="1" as="geometry" />
        </mxCell>
      </root>
    </mxGraphModel>
  </diagram>
</mxfile>
